HIERARCHY
ROOT root
{
	OFFSET	0	13.1	24.9
	CHANNELS 6  Xposition Yposition Zposition Xrotation Yrotation Zrotation
	JOINT spine_1
	{
		OFFSET	0	9.99999	0
		CHANNELS 3  Xrotation Yrotation Zrotation
		JOINT spine_2
		{
			OFFSET	0	112	-10
			CHANNELS 3  Xrotation Yrotation Zrotation
			JOINT spine_3
			{
				OFFSET	0	206.5	19.3
				CHANNELS 3  Xrotation Yrotation Zrotation
				JOINT spine_4
				{
					OFFSET	0	110.4	14.6
					CHANNELS 3  Xrotation Yrotation Zrotation
					JOINT neck_1
					{
						OFFSET	0	71.8	-50.3
						CHANNELS 3  Xrotation Yrotation Zrotation
						JOINT neck_2
						{
							OFFSET	0	86.2	-25.8
							CHANNELS 3  Xrotation Yrotation Zrotation
							JOINT head_ee
							{
								OFFSET	0	179.8	-8.7
								CHANNELS 3  Xrotation Yrotation Zrotation
								End Site
								{
									OFFSET	1	0	0
								}
							}
						}
					}
					JOINT left_clavicle
					{
						OFFSET	-43.2	22.4	-70.8
						CHANNELS 3  Xrotation Yrotation Zrotation
						JOINT left_shoulder
						{
							OFFSET	-93.9	-5.79999	48.7
							CHANNELS 3  Xrotation Yrotation Zrotation
							JOINT left_elbow
							{
								OFFSET	-291.4	-30.8	15.2
								CHANNELS 3  Xrotation Yrotation Zrotation
								JOINT left_lowarm_twist
								{
									OFFSET	-110.7	-3.89999	13.6
									CHANNELS 3  Xrotation Yrotation Zrotation
									JOINT left_hand
									{
										OFFSET	-110.7	-3.89999	13.6
										CHANNELS 3  Xrotation Yrotation Zrotation
										JOINT left_ee
										{
											OFFSET	-80.8	-5.10001	12.1
											CHANNELS 3  Xrotation Yrotation Zrotation
											End Site
											{
												OFFSET	1	0	0
											}
										}
									}
								}
							}
						}
					}
					JOINT right_clavicle
					{
						OFFSET	43.2	22.4	-70.8
						CHANNELS 3  Xrotation Yrotation Zrotation
						JOINT right_shoulder
						{
							OFFSET	93.9	-5.79999	48.7
							CHANNELS 3  Xrotation Yrotation Zrotation
							JOINT right_elbow
							{
								OFFSET	291.4	-30.8	15.2
								CHANNELS 3  Xrotation Yrotation Zrotation
								JOINT right_lowarm_twist
								{
									OFFSET	110.7	-3.89999	13.6
									CHANNELS 3  Xrotation Yrotation Zrotation
									JOINT right_hand
									{
										OFFSET	110.7	-3.89999	13.6
										CHANNELS 3  Xrotation Yrotation Zrotation
										JOINT right_ee
										{
											OFFSET	80.8	-5.10001	12.1
											CHANNELS 3  Xrotation Yrotation Zrotation
											End Site
											{
												OFFSET	1	0	0
											}
										}
									}
								}
							}
						}
					}
				}
			}
		}
	}
	JOINT left_hip
	{
		OFFSET	-82.8	-127.5	0.300001
		CHANNELS 3  Xrotation Yrotation Zrotation
		JOINT left_knee
		{
			OFFSET	-28.2	-396.7	2.2
			CHANNELS 3  Xrotation Yrotation Zrotation
			JOINT left_ankle
			{
				OFFSET	-11.7	-411.3	35.4
				CHANNELS 3  Xrotation Yrotation Zrotation
				JOINT left_toes
				{
					OFFSET	0	-60	-88.6
					CHANNELS 3  Xrotation Yrotation Zrotation
					JOINT left_foot_ee
					{
						OFFSET	-22.5	-16.5	-42.2
						CHANNELS 3  Xrotation Yrotation Zrotation
						End Site
						{
							OFFSET	1	0	0
						}
					}
				}
			}
		}
	}
	JOINT right_hip
	{
		OFFSET	82.8	-127.5	0.300001
		CHANNELS 3  Xrotation Yrotation Zrotation
		JOINT right_knee
		{
			OFFSET	28.2	-396.7	2.2
			CHANNELS 3  Xrotation Yrotation Zrotation
			JOINT right_ankle
			{
				OFFSET	11.7	-411.3	35.4
				CHANNELS 3  Xrotation Yrotation Zrotation
				JOINT right_toes
				{
					OFFSET	0	-60	-88.6
					CHANNELS 3  Xrotation Yrotation Zrotation
					JOINT right_foot_ee
					{
						OFFSET	22.5	-16.5	-42.2
						CHANNELS 3  Xrotation Yrotation Zrotation
						End Site
						{
							OFFSET	1	0	0
						}
					}
				}
			}
		}
	}
}
MOTION
Frames: 11
Frame Time: 0.02
1372.05 701.618 -1475.22 -4.63944611623 62.1465343484 6.98302315745 3.27712 -0.104844 -0.878133 3.27755 -0.0487554 -0.883025 3.27813 0.0877517 -0.880006 3.27706 -0.0523245 -0.88282 -20.0811 11.9578 2.34399 -20.7897 21.8665 7.36828 -0.0 0.0 -0.0 -0.384946 9.34593 0.438338 -0.783269 -21.5257 61.1305 3.213 -57.8465 1.7757 -23.645 -1.40242 2.65671 0.0472007 0.0422456 0.332962 -0.0 0.0 -0.0 6.52966 19.3942 -11.8022 -42.4205 38.3348 -67.6588 0.463229 12.9241 -0.0524679 4.52834 -0.137394 0.561948 4.653 -25.2637 -39.9891 0.0 0.0 0.0 -20.0513 -3.44273 6.86102 7.26671 -0.366668 -1.05363 32.0284 22.3406 -4.27436 -18.1116 0.0 0.0 -0.0 0.0 -0.0 31.5394 14.9643 -16.2221 4.26359 0.198908 0.623773 -24.0064 4.56753 -3.70893 8.37653 -0.0 -0.0 0.0 0.0 0.0 
1352.32755375 699.509 -1478.52042632 -7.18535806682 63.8600671326 9.60721564307 3.36397 -0.239267 -0.89078 3.3644 -0.182102 -0.904198 3.36711 -0.0421944 -0.921386 3.36598 -0.187175 -0.903162 -19.7438 11.3502 1.72781 -20.3827 20.9895 6.45129 -0.0 0.0 -0.0 -0.920147 12.0129 -0.123261 -2.22098 -23.6429 62.3174 3.54013 -60.2919 2.05637 -25.304 -1.5404 2.81844 0.486646 -0.582897 3.01012 -0.0 0.0 -0.0 6.62395 17.4536 -12.155 -43.6385 39.5961 -64.4293 0.57682 15.9469 -0.0807948 4.11725 -0.126761 0.510512 4.71649 -25.883 -40.5489 0.0 0.0 0.0 -20.0879 -3.26404 6.49375 7.64499 -0.389397 -1.10714 31.4314 23.2017 -4.22749 -20.4062 0.0 0.0 -0.0 0.0 -0.0 31.6988 14.7793 -15.808 1.62493 0.0703159 0.239423 -23.7046 3.14109 -3.64231 8.17926 -0.0 -0.0 0.0 0.0 0.0 
1328.22532108 698.098 -1481.12358518 -7.93960055161 65.5196561497 10.4817872542 3.4219 -0.367315 -0.923835 3.42233 -0.307788 -0.945333 3.42725 -0.161192 -0.98102 3.42604 -0.314096 -0.943256 -16.967 9.63529 0.473327 -17.3401 18.2377 4.04007 -0.0 0.0 -0.0 -1.47039 13.5944 -0.806259 -3.33057 -25.101 63.5672 3.51074 -60.0861 2.03087 -26.1759 -1.61479 2.90184 0.951698 0.746488 6.67288 -0.0 0.0 -0.0 6.19554 16.2682 -11.3144 -44.3203 41.5468 -62.8024 0.62052 17.0869 -0.0932192 1.44174 -0.0485626 0.17773 4.67764 -27.9073 -40.4012 0.0 0.0 0.0 -20.3379 -3.16118 6.60241 6.68492 -0.332407 -0.971034 32.9263 24.3394 -4.42028 -20.9987 0.0 0.0 -0.0 0.0 -0.0 31.8117 14.4088 -15.3674 -0.976855 -0.0389882 -0.144839 -23.2271 0.466896 -3.53849 7.55829 -0.0 -0.0 0.0 0.0 0.0 
1328.33482522 698.098 -1481.88620535 -7.64893537847 64.5306140139 10.161151375 3.4219 -0.367315 -0.923835 3.42233 -0.307788 -0.945333 3.42725 -0.161192 -0.98102 3.42604 -0.314096 -0.943256 -16.967 9.63529 0.473327 -17.3401 18.2377 4.04007 -0.0 0.0 -0.0 -1.47039 13.5944 -0.806259 -3.33057 -25.101 63.5672 3.51074 -60.0861 2.03087 -26.1759 -1.61479 2.90184 0.951698 0.746488 6.67288 -0.0 0.0 -0.0 6.19554 16.2682 -11.3144 -44.3203 41.5468 -62.8024 0.62052 17.0869 -0.0932192 1.44174 -0.0485626 0.17773 4.67764 -27.9073 -40.4012 0.0 0.0 0.0 -20.3379 -3.16118 6.60241 6.68492 -0.332407 -0.971034 32.9263 24.3394 -4.42028 -20.9987 0.0 0.0 -0.0 0.0 -0.0 31.8117 14.4088 -15.3674 -0.976855 -0.0389882 -0.144839 -23.2271 0.466896 -3.53849 7.55829 -0.0 -0.0 0.0 0.0 0.0 
1281.52830529 697.053 -1486.53341626 -10.1340275636 68.9404741992 11.86187573 3.94288 -0.334622 -0.820114 3.94321 -0.281759 -0.839743 3.94716 -0.15935 -0.871298 3.94622 -0.294951 -0.835201 -16.8487 8.50001 0.382324 -17.1331 16.1043 3.49546 -0.0 0.0 -0.0 -3.30214 19.981 -2.53019 -5.6138 -27.5581 66.8921 3.46393 -59.7529 1.99036 -29.1185 -1.87508 3.17481 1.71685 -2.04877 10.718 -0.0 0.0 -0.0 5.89685 14.3223 -10.8069 -44.0722 43.1773 -60.3821 0.730646 19.8972 -0.128159 1.40553 -0.0473975 0.173252 4.75423 -29.9834 -41.0746 0.0 0.0 0.0 -19.9545 -3.13648 5.78873 4.24667 -0.198027 -0.621327 32.0332 24.6244 -4.3288 -23.8672 0.0 0.0 -0.0 0.0 -0.0 29.9757 14.9611 -13.5121 -4.93927 -0.171619 -0.738369 -21.5399 -0.884016 -3.2697 5.56403 -0.0 -0.0 0.0 0.0 0.0 
1260.08956199 702.342 -1488.59717538 -11.3686364628 70.6710482271 13.0922042605 4.03267 -0.326011 -0.747677 4.03294 -0.277775 -0.766905 4.0365 -0.167019 -0.798376 4.03573 -0.291008 -0.761982 -16.7203 6.61865 -0.86837 -16.9055 13.1928 1.59906 -0.0 0.0 -0.0 -3.89668 20.8908 -3.2091 -6.60011 -28.8326 68.2072 3.1669 -57.4726 1.73674 -32.4978 -2.19091 3.47147 1.96326 2.6408 14.274 -0.0 0.0 -0.0 5.46635 13.0322 -9.9755 -43.1301 44.7682 -61.1845 0.752287 20.4384 -0.13562 0.0535178 -0.00188277 0.00657556 4.62197 -31.1987 -40.101 0.0 0.0 0.0 -19.2819 -3.17215 5.4799 2.69373 -0.120264 -0.395802 31.1845 21.8068 -4.16992 -24.824 0.0 0.0 -0.0 0.0 -0.0 28.4078 15.2919 -12.6865 -6.73576 -0.218154 -1.01013 -13.7623 0.190047 -2.08584 7.33816 -0.0 -0.0 0.0 0.0 0.0 
1232.96247911 705.894 -1493.1259776 -10.1234565021 71.6481318214 11.5882300278 4.22128 -0.358417 -0.601346 4.22142 -0.319426 -0.622933 4.2248 -0.230702 -0.660949 4.22435 -0.33219 -0.616221 -18.2884 4.93066 -0.565103 -18.4069 9.79112 1.3948 -0.0 0.0 -0.0 -4.27032 19.4977 -4.08082 -7.74231 -30.6055 69.1181 2.48651 -50.9203 1.18403 -30.8761 -2.03715 3.33142 2.11904 2.61048 15.3326 -0.0 0.0 -0.0 5.1298 11.2759 -9.37854 -41.5503 45.2118 -60.9054 0.778543 21.0899 -0.144929 0.662667 -0.0228769 0.0815407 4.86185 -31.2145 -41.905 0.0 0.0 0.0 -18.1531 -3.36162 5.13245 -3.0319 0.112906 0.451548 31.5663 19.3303 -4.16529 -23.3037 0.0 0.0 -0.0 0.0 -0.0 25.5962 15.6668 -11.819 -8.09124 -0.247611 -1.21605 -7.50674 0.478187 -1.12934 7.32532 -0.0 -0.0 0.0 0.0 0.0 
1207.07036871 706.514 -1498.13332715 -7.57095576452 73.6822031453 8.88553047117 4.31889 -0.365996 -0.458933 4.31894 -0.336052 -0.481291 4.32173 -0.267536 -0.52249 4.32151 -0.346695 -0.473682 -20.4423 3.936 -0.689271 -20.5351 7.93499 1.03888 -0.0 0.0 -0.0 -5.08173 20.6666 -5.00388 -9.72015 -32.8186 69.3975 2.37297 -49.6048 1.09671 -30.4816 -2.00035 3.29669 2.3717 3.02522 17.2402 -0.0 0.0 -0.0 4.68907 9.48233 -8.57133 -40.7292 46.3603 -60.4346 0.80125 21.6488 -0.153203 -1.98568 0.0741828 -0.242701 4.72999 -31.3588 -40.9057 0.0 0.0 0.0 -17.4857 -3.12405 5.28677 -7.97252 0.245225 1.19798 31.6599 19.1571 -4.17249 -22.3493 0.0 0.0 -0.0 0.0 -0.0 22.2695 15.9596 -10.3799 -9.14752 -0.267182 -1.37695 -2.50922 -0.652784 -0.372778 7.81595 -0.0 -0.0 0.0 0.0 0.0 
1167.67760654 710.376 -1498.33014047 -3.52973780799 75.4101878366 4.36987411791 4.32175 -0.162923 -0.3183 4.3218 -0.142339 -0.328022 4.32258 -0.0964452 -0.344321 4.32245 -0.149614 -0.324769 -22.4878 2.4992 -0.41051 -22.5307 5.01403 0.771667 -0.0 0.0 -0.0 -5.83836 19.8805 -6.34775 -12.095 -33.29 70.3596 1.91681 -43.5125 0.76503 -29.9889 -1.95474 3.25298 2.54769 5.94971 19.5582 -0.0 0.0 -0.0 4.20593 6.62429 -7.75561 -36.6393 46.7118 -60.225 0.838656 22.5601 -0.167279 -3.14465 0.121359 -0.383139 4.70872 -31.3018 -40.7465 0.0 0.0 0.0 -14.6814 -4.37593 4.38253 -13.6627 0.317297 2.06776 33.5482 17.1149 -4.33997 -21.859 0.0 0.0 -0.0 0.0 -0.0 16.6276 16.6421 -9.40417 -8.27394 -0.251208 -1.24385 4.54449 0.988598 0.665731 7.56207 -0.0 -0.0 0.0 0.0 0.0 
1150.10548649 714.266 -1504.46741052 -2.26242730599 74.5544064831 2.80088250756 4.28315 -0.185233 -0.180551 4.28315 -0.173369 -0.191972 4.28373 -0.145529 -0.213848 4.28371 -0.177476 -0.188181 -21.8635 3.5396 0.713496 -21.931 6.49146 2.25647 -0.0 0.0 -0.0 -6.07858 19.976 -6.68438 -13.188 -33.3125 71.2443 1.58959 -38.2153 0.550712 -30.6016 -2.01152 3.30728 2.66243 7.90924 21.0596 -0.0 0.0 -0.0 4.32216 6.77164 -7.98379 -34.5709 46.6932 -61.0471 0.895609 23.9246 -0.189755 -4.16453 0.165219 -0.505922 4.55749 -31.1207 -39.6253 0.0 0.0 0.0 -10.4044 -5.17232 5.75498 -18.0986 0.313423 2.74818 37.129 17.8393 -4.71169 -21.0347 0.0 0.0 -0.0 0.0 -0.0 13.3058 16.7902 -8.75944 -5.38088 -0.183849 -0.805039 5.30373 -1.10776 0.771128 5.61929 -0.0 -0.0 0.0 0.0 0.0 
1134.66830261 720.632 -1511.57950145 -1.25791169595 71.6930407216 1.38070643362 4.2507 0.0320772 -0.0287085 4.2507 0.033839 -0.0266092 4.25069 0.0371683 -0.0217173 4.25069 0.033272 -0.0273148 -23.0142 2.92736 0.846817 -23.0611 5.26404 2.16159 -0.0 0.0 -0.0 -6.2314 20.0433 -6.89635 -16.5823 -33.5447 70.4856 1.53919 -37.3219 0.519847 -31.0901 -2.05721 3.35014 2.8219 8.41263 22.3542 -0.0 0.0 -0.0 4.09408 6.05397 -7.56348 -32.5037 47.4289 -61.3322 1.00481 26.4613 -0.236248 -3.62184 0.141608 -0.440684 4.77863 -31.269 -41.2718 0.0 0.0 0.0 -9.30008 -6.35559 7.2939 -17.1844 0.318531 2.608 35.5746 17.4482 -4.5517 -20.7516 0.0 0.0 -0.0 0.0 -0.0 12.4594 15.4048 -8.27111 -6.8921 -0.221801 -1.03384 7.91101 1.27724 1.1474 6.06785 -0.0 -0.0 0.0 0.0 0.0 
